<svg width="1200" height="280" viewBox="0 0 1200 280" xmlns="http://www.w3.org/2000/svg">
<defs>
 <linearGradient id="bg" x1="0" y1="0" x2="1" y2="1">
  <stop offset="0" stop-color="#03343B"/><stop offset="0.55" stop-color="#05998B"/><stop offset="1" stop-color="#00C9A7"/>
 </linearGradient>
 <linearGradient id="w1" x1="0" y1="0" x2="1" y2="0"><stop offset="0" stop-color="#00C9A7" stop-opacity="0.35"/><stop offset="1" stop-color="#05445E" stop-opacity="0.35"/></linearGradient>
 <linearGradient id="w2" x1="0" y1="0" x2="1" y2="0"><stop offset="0" stop-color="#021F24" stop-opacity="0.55"/><stop offset="1" stop-color="#05998B" stop-opacity="0.45"/></linearGradient>
 <clipPath id="c"><rect width="1200" height="280" rx="18"/></clipPath>
 <style>
  .t{font-family:'Segoe UI',Helvetica,Arial,sans-serif;fill:#fff;opacity:0;animation:fade 1.4s ease-out forwards}
  .s{animation-delay:.5s}
  @keyframes fade{from{opacity:0;transform:translateY(12px)}to{opacity:1;transform:translateY(0)}}
 </style>
</defs>
<g clip-path="url(#c)">
 <rect width="1200" height="280" fill="url(#bg)"/>
 <g><path d="M0 200 C150.0 178 150.0 178 300.0 200 C450.0 222 450.0 222 600.0 200 C750.0 178 750.0 178 900.0 200 C1050.0 222 1050.0 222 1200.0 200 C1350.0 178 1350.0 178 1500.0 200 C1650.0 222 1650.0 222 1800.0 200 C1950.0 178 1950.0 178 2100.0 200 C2250.0 222 2250.0 222 2400.0 200 L2400.0 280 L0 280 Z" fill="url(#w1)"/>
  <animateTransform attributeName="transform" type="translate" from="0 0" to="-600 0" dur="9s" repeatCount="indefinite"/></g>
 <g><path d="M0 230 C100.0 214 100.0 214 200.0 230 C300.0 246 300.0 246 400.0 230 C500.0 214 500.0 214 600.0 230 C700.0 246 700.0 246 800.0 230 C900.0 214 900.0 214 1000.0 230 C1100.0 246 1100.0 246 1200.0 230 C1300.0 214 1300.0 214 1400.0 230 C1500.0 246 1500.0 246 1600.0 230 C1700.0 214 1700.0 214 1800.0 230 C1900.0 246 1900.0 246 2000.0 230 C2100.0 214 2100.0 214 2200.0 230 C2300.0 246 2300.0 246 2400.0 230 L2400.0 280 L0 280 Z" fill="url(#w2)"/>
  <animateTransform attributeName="transform" type="translate" from="-400 0" to="0 0" dur="7s" repeatCount="indefinite"/></g>
 <text class="t" x="600" y="118" text-anchor="middle" font-size="64" font-weight="700">Ali Abdullayev</text>
 <text class="t s" x="600" y="166" text-anchor="middle" font-size="24" font-weight="500" fill-opacity="0.92">Backend  |  AI Engineer  &amp;  Entrepreneur</text>
</g>
</svg>